PathFileType	4	(X/Y/Z)	Patient4_TMGait_0pt5_01_left_36.trc.trc
DataRate	CameraRate	NumFrames	NumMarkers	Units	OrigDataRate	OrigDataStartFrame	OrigNumFrames
75.268817204301	75.268817204301	5	33	mm	75.268817204301	71	       141
Frame#	Time	L.ASIS			Sacral			L.Shoulder			Chest			R.Shoulder			Neck			R.ASIS			R.Thigh.Superior			R.Thigh.Lateral			R.Thigh.Inferior			R.Patella			L.Thigh.Superior			L.Thigh.Lateral			L.Thigh.Inferior			L.Patella			L.Shank.Superior			L.Shank.Lateral			L.Shank.Inferior			R.Shank.Superior			R.Shank.Lateral			R.Shank.Inferior			R.Heel			R.Midfoot.Superior			R.Midfoot.Lateral			R.Toe			L.Heel			L.Midfoot.Lateral			L.Midfoot.Superior			L.Toe			L.Elbow			L.Wrist			R.Elbow			R.Wrist			
		X1	Y1	Z1	X2	Y2	Z2	X3	Y3	Z3	X4	Y4	Z4	X5	Y5	Z5	X6	Y6	Z6	X7	Y7	Z7	X8	Y8	Z8	X9	Y9	Z9	X10	Y10	Z10	X11	Y11	Z11	X12	Y12	Z12	X13	Y13	Z13	X14	Y14	Z14	X15	Y15	Z15	X16	Y16	Z16	X17	Y17	Z17	X18	Y18	Z18	X19	Y19	Z19	X20	Y20	Z20	X21	Y21	Z21	X22	Y22	Z22	X23	Y23	Z23	X24	Y24	Z24	X25	Y25	Z25	X26	Y26	Z26	X27	Y27	Z27	X28	Y28	Z28	X29	Y29	Z29	X30	Y30	Z30	X31	Y31	Z31	X32	Y32	Z32	X33	Y33	Z33	

71	48.880000000000	830.391469317958	960.850438907521	296.707623519045	604.058513766800	1005.588111036434	435.113493683646	802.243853128650	1432.420857957217	269.015392360658	885.641790971484	1362.314908705474	440.534690164384	784.779827639442	1438.801629925727	604.462731582054	788.781010131920	1494.435558314140	419.354893681189	819.024161933468	941.999504700814	572.361526132437	888.004347219989	762.940624319919	549.064467013605	833.858085719450	642.949486953296	618.191402010467	924.810377730169	601.622811087358	542.810173888021	954.205292911597	519.446655527558	558.553931898614	839.086096999655	736.441607160128	326.498566998135	729.559271788348	638.518049955892	259.224440257677	789.703173558748	548.198974886207	326.902822944291	776.412466562637	482.175984755911	336.069895022478	748.887198553075	414.578120248045	327.330774658829	656.159102902485	302.571150481642	276.322981219353	702.396651271710	191.786362711510	352.067560589096	939.631568147060	432.659664282491	566.013080327334	886.217398280211	317.635001783851	625.473345856734	958.490711727603	233.280308979903	575.721643967798	868.019322197111	46.419753236174	540.375123253671	1027.836537860423	122.230339149540	592.184334532915	947.587717617748	45.081324598570	619.619506785776	1149.753141019362	85.713957760846	625.535297448048	571.361141444801	37.651735815037	399.057317365172	642.659022427089	34.342556493968	315.632639141908	726.293772332306	95.824063782455	339.918370484340	854.045249784698	45.109651420266	308.399700032315	852.062671742423	1106.717004440123	103.550386714901	1102.503958250299	1036.767941078942	105.357777110909	625.281443190683	1138.577118732294	718.089757978598	582.697906467773	884.364634942708	753.021952024555	
72	48.893285714286	832.183044338557	959.794848877879	298.602585806502	606.196309541903	1004.079908936487	436.693926499492	803.181093574478	1431.562230369436	271.176269604133	886.469632048361	1361.676478083052	442.812989494619	785.015444288620	1437.752460307717	606.535596167965	789.121983763126	1493.356971630398	421.561559098403	820.937782719039	940.654963692301	574.120654482703	889.122866278875	760.450974909056	551.096569351173	832.862348088665	640.603710990073	619.144702613842	923.889946768840	599.047695804881	544.217105865348	952.231429481428	517.473450281421	559.133317060759	839.073649030523	734.883702610006	327.921983106661	728.369530646521	638.050942677137	260.314764571269	787.218900139574	547.071154034151	328.043760837663	773.327760351492	480.987380833894	336.944579926564	745.076874862645	413.767842009438	328.135117417262	651.314250074997	302.682354154004	276.803738077929	696.612132520545	191.339463524195	352.336747450664	938.503144499083	430.429934077825	566.704583509443	885.704011194908	315.008938712674	625.801165474109	958.665254217300	231.233061835866	576.117673722490	868.973573534863	45.119413584067	540.469111512305	1028.961523179211	119.769720078159	592.066457600780	948.436802788757	43.450246550211	619.778335413170	1150.742375438428	82.643384750225	625.593314538786	564.651145438299	37.581661188858	399.065164152033	635.945504287542	34.310247083017	315.657869563380	719.607682111193	95.728612228161	340.029919119199	847.350226294205	44.900553745130	308.432887163383	853.335548463441	1106.100714760320	105.460032092401	1104.834718103164	1041.063771318322	107.929038054678	623.676474045933	1138.512329156503	718.972282664951	580.856912321360	884.084010435554	753.209874029181	
73	48.906571428571	834.103375966480	958.646497294800	300.603050003547	608.467315171467	1002.486242641807	438.527003898697	804.053586990913	1430.683079324377	273.525313703908	887.352900478180	1361.027815853189	445.233026618088	785.323334060897	1436.584302313744	608.837352778683	789.451821524634	1492.226938011248	423.990680189324	823.098625653876	939.270974705229	575.948162943486	890.762529880441	758.066369390840	553.086140030675	832.424174230297	638.355806074666	619.936502085724	923.518086705640	596.677122733416	545.450451090012	950.663615901738	515.376035493310	559.570585834030	839.465224650534	733.297565544825	329.373209316710	727.652490474399	637.465481300446	261.635856537966	785.378272625886	545.864329938589	329.344742811999	770.945947583226	479.616554660706	338.022847520498	741.831640138961	412.784651582797	329.126549340241	646.842896751358	302.807709542622	277.461622841023	691.020166703162	190.799297932669	352.670051833870	937.353133604504	427.903053593663	567.231335780982	884.446318057574	312.412491280640	625.910119581643	957.452496344732	228.791825840981	576.229195294336	867.256018013250	44.127011175128	540.306175399592	1027.794204465931	116.817854177011	591.572996078568	946.574059286511	41.883331621173	619.743717442080	1149.257498476135	78.448728967722	625.415417992559	557.939963098401	37.494790499951	399.058032750962	629.248895527999	34.264054388665	315.690489846382	712.948979961212	95.624895655807	340.159634489304	840.690336570794	44.617760574597	308.466771096615	854.367844362725	1105.302291081373	107.656812485822	1106.682220329173	1044.430830106815	110.690898600417	623.045402214534	1137.686894147265	719.953768897437	580.543481853933	882.922227122512	753.294664205389	
74	48.919857142857	836.140282364783	957.454030952750	302.714775322927	610.818350395199	1000.884999314523	440.580721632833	804.893362969219	1429.824714777398	276.055383492901	888.307809950957	1360.396358630808	447.790799753705	785.725266854755	1435.340255871949	611.360936166824	789.818000338986	1491.096804016515	426.629608647595	825.458654554537	937.910990977412	577.851639380989	892.839870476751	755.843160110145	555.043823461336	832.494098177630	636.280076231747	620.607984431016	923.663040629372	594.578576169269	546.545589226094	949.492969023612	513.232732906836	559.895287931151	840.266965459025	731.720115294136	330.859521700373	727.426228469227	636.778587977965	263.201900957378	784.230638319275	544.594237296712	330.803829415881	769.330075231778	478.067250243592	339.300119908777	739.195225010757	411.638334163102	330.302409136808	642.773046343310	302.975291268652	278.308379686883	685.639212815086	190.186126724224	353.064041346547	936.251032431013	425.209385416323	567.633240648675	882.652066003871	309.906378653571	625.869663414291	955.149524413720	226.077898752968	576.104682956312	863.365925158270	43.377131208748	539.950004770149	1024.737836094421	113.573689928803	590.770102927877	942.515187290477	40.427269079233	619.566682519678	1145.767254656996	73.517590491804	625.039880042590	551.229192975138	37.427801382885	399.027205568686	622.577361690740	34.215751970258	315.730246525970	706.336578263624	95.521532493970	340.295562902174	834.076726071676	44.253414253165	308.498184173156	855.153070345797	1104.341159448538	110.151013914730	1108.061875122075	1046.823285197574	113.644921569352	623.411485489164	1136.144827769891	721.081721700679	581.777791910434	880.928375264830	753.307939917362	
75	48.933142857143	838.273549444790	956.281854300016	304.944102864877	613.196450805614	999.362927684014	442.819444575777	805.742698684980	1429.039350554332	278.752118224470	889.350853724722	1359.817453564493	450.477509006225	786.245775998860	1434.081521941101	614.088804459158	790.272777024217	1490.030102527395	429.457790528470	827.956861761954	936.651324328268	579.844770189951	895.249323485146	753.848350921622	556.985912285157	833.013724225734	634.459582319495	621.221836665709	924.269779103927	592.815544257651	547.548563054591	948.697783169476	511.134388885024	560.161069148426	841.458511496115	730.203015799646	332.398937984542	727.692438954227	636.019885107483	265.014472569114	783.809633578890	543.290930432740	332.408490811595	768.527701891617	476.359353121925	340.749444799739	737.198268477058	410.356548749870	331.641239203728	639.124116373875	303.227689059950	279.340904706412	680.486409923068	189.538636743022	353.505016152492	935.252420851228	422.503029247936	567.967765031422	880.537482258024	307.578462333807	625.771658695621	952.069513975298	223.256394491619	575.815126936857	857.860694017951	42.829781113217	539.478693207386	1020.240642337437	110.276022875758	589.759458048807	936.834111704662	39.143955238417	619.307342364310	1140.780709924319	68.291949535354	624.523334670735	544.523977090868	37.444013528711	398.962879084523	615.940661321852	34.188529564302	315.774972889512	699.796968697379	95.430803208504	340.418269539463	827.520345761148	43.804098892416	308.522601106931	855.681237345262	1103.247194347461	112.954694132191	1108.978583007513	1048.206324079344	116.799038864349	624.784590393632	1133.972400761559	722.395127590986	584.576405950709	878.194761823917	753.284469413272	
